{
  "accessors": [
    {
      "bufferView": 2,
      "componentType": 5126,
      "count": 8213,
      "max": [
        0.9872310161590576,
        0.9975767135620117,
        0.9872307181358337
      ],
      "min": [
        -0.9872305393218994,
        -0.9975858330726624,
        -0.9872310161590576
      ],
      "type": "VEC3"
    },
    {
      "bufferView": 2,
      "byteOffset": 98556,
      "componentType": 5126,
      "count": 8213,
      "max": [
        1.0,
        1.0,
        1.0
      ],
      "min": [
        -1.0,
        -0.9999980926513672,
        -1.0
      ],
      "type": "VEC3"
    },
    {
      "bufferView": 1,
      "componentType": 5126,
      "count": 8213,
      "max": [
        1.0000001192092896,
        1.0000001192092896
      ],
      "min": [
        0.0,
        0.0
      ],
      "type": "VEC2"
    },
    {
      "bufferView": 0,
      "componentType": 5125,
      "count": 47316,
      "type": "SCALAR"
    },
    {
      "bufferView": 2,
      "byteOffset": 197112,
      "componentType": 5126,
      "count": 66,
      "max": [
        0.39035141468048096,
        -0.3846386969089508,
        0.8916797041893005
      ],
      "min": [
        -0.39521533250808716,
        -0.6086652874946594,
        0.772654116153717
      ],
      "type": "VEC3"
    },
    {
      "bufferView": 2,
      "byteOffset": 197904,
      "componentType": 5126,
      "count": 66,
      "max": [
        0.31302541494369507,
        0.668211817741394,
        0.9997947216033936
      ],
      "min": [
        -0.31522077322006226,
        -0.9113807082176208,
        0.3249465525150299
      ],
      "type": "VEC3"
    },
    {
      "bufferView": 1,
      "byteOffset": 65704,
      "componentType": 5126,
      "count": 66,
      "max": [
        0.2890625298023224,
        0.3906250298023224
      ],
      "min": [
        0.2109374850988388,
        0.3124999403953552
      ],
      "type": "VEC2"
    },
    {
      "bufferView": 0,
      "byteOffset": 189264,
      "componentType": 5125,
      "count": 300,
      "type": "SCALAR"
    },
    {
      "bufferView": 2,
      "byteOffset": 198696,
      "componentType": 5126,
      "count": 2194,
      "max": [
        9.51167106628418,
        5.565131187438965,
        27.8720760345459
      ],
      "min": [
        -4.916934013366699,
        -5.565131187438965,
        -1.504556655883789
      ],
      "type": "VEC3"
    },
    {
      "bufferView": 2,
      "byteOffset": 225024,
      "componentType": 5126,
      "count": 2194,
      "max": [
        0.999096155166626,
        0.9999189972877502,
        0.9999460577964783
      ],
      "min": [
        -0.9999504089355469,
        -0.9999189972877502,
        -0.9999461770057678
      ],
      "type": "VEC3"
    },
    {
      "bufferView": 1,
      "byteOffset": 66232,
      "componentType": 5126,
      "count": 2194,
      "max": [
        1.0,
        1.0
      ],
      "min": [
        0.0,
        2.220446049250313e-16
      ],
      "type": "VEC2"
    },
    {
      "bufferView": 0,
      "byteOffset": 190464,
      "componentType": 5125,
      "count": 11112,
      "type": "SCALAR"
    },
    {
      "bufferView": 2,
      "byteOffset": 251352,
      "componentType": 5126,
      "count": 3677,
      "max": [
        0.9992902874946594,
        1.0904759168624878,
        0.9992850422859192
      ],
      "min": [
        -0.5533718466758728,
        -0.9612300992012024,
        -0.9992850422859192
      ],
      "type": "VEC3"
    },
    {
      "bufferView": 2,
      "byteOffset": 295476,
      "componentType": 5126,
      "count": 3677,
      "max": [
        1.0,
        0.9999004006385803,
        1.0
      ],
      "min": [
        -1.0,
        -0.9981104731559753,
        -1.0
      ],
      "type": "VEC3"
    },
    {
      "bufferView": 1,
      "byteOffset": 83784,
      "componentType": 5126,
      "count": 3677,
      "max": [
        0.8750001192092896,
        1.0000001192092896
      ],
      "min": [
        0.125,
        0.0
      ],
      "type": "VEC2"
    },
    {
      "bufferView": 0,
      "byteOffset": 234912,
      "componentType": 5125,
      "count": 20736,
      "type": "SCALAR"
    },
    {
      "bufferView": 2,
      "byteOffset": 339600,
      "componentType": 5126,
      "count": 3677,
      "max": [
        0.9992902874946594,
        1.0904759168624878,
        0.9992850422859192
      ],
      "min": [
        -0.5533718466758728,
        -0.9612300992012024,
        -0.9992850422859192
      ],
      "type": "VEC3"
    },
    {
      "bufferView": 2,
      "byteOffset": 383724,
      "componentType": 5126,
      "count": 3677,
      "max": [
        1.0,
        0.9999004006385803,
        1.0
      ],
      "min": [
        -1.0,
        -0.9981104731559753,
        -1.0
      ],
      "type": "VEC3"
    },
    {
      "bufferView": 1,
      "byteOffset": 113200,
      "componentType": 5126,
      "count": 3677,
      "max": [
        0.8750001192092896,
        1.0000001192092896
      ],
      "min": [
        0.125,
        0.0
      ],
      "type": "VEC2"
    },
    {
      "bufferView": 0,
      "byteOffset": 317856,
      "componentType": 5125,
      "count": 20736,
      "type": "SCALAR"
    },
    {
      "bufferView": 2,
      "byteOffset": 427848,
      "componentType": 5126,
      "count": 192,
      "max": [
        1.0,
        1.0,
        1.0
      ],
      "min": [
        -1.0,
        -1.0,
        -1.0
      ],
      "type": "VEC3"
    },
    {
      "bufferView": 2,
      "byteOffset": 430152,
      "componentType": 5126,
      "count": 192,
      "max": [
        0.9951847195625305,
        1.0,
        0.9951847195625305
      ],
      "min": [
        -0.9951847195625305,
        -1.0,
        -0.9951847195625305
      ],
      "type": "VEC3"
    },
    {
      "bufferView": 1,
      "byteOffset": 142616,
      "componentType": 5126,
      "count": 192,
      "max": [
        1.0,
        1.0
      ],
      "min": [
        0.0,
        0.01000000536441803
      ],
      "type": "VEC2"
    },
    {
      "bufferView": 0,
      "byteOffset": 400800,
      "componentType": 5125,
      "count": 372,
      "type": "SCALAR"
    },
    {
      "bufferView": 2,
      "byteOffset": 432456,
      "componentType": 5126,
      "count": 192,
      "max": [
        1.0,
        1.0,
        1.0
      ],
      "min": [
        -1.0,
        -1.0,
        -1.0
      ],
      "type": "VEC3"
    },
    {
      "bufferView": 2,
      "byteOffset": 434760,
      "componentType": 5126,
      "count": 192,
      "max": [
        0.9951847195625305,
        1.0,
        0.9951847195625305
      ],
      "min": [
        -0.9951847195625305,
        -1.0,
        -0.9951847195625305
      ],
      "type": "VEC3"
    },
    {
      "bufferView": 1,
      "byteOffset": 144152,
      "componentType": 5126,
      "count": 192,
      "max": [
        1.0,
        1.0
      ],
      "min": [
        0.0,
        0.01000000536441803
      ],
      "type": "VEC2"
    },
    {
      "bufferView": 0,
      "byteOffset": 402288,
      "componentType": 5125,
      "count": 372,
      "type": "SCALAR"
    }
  ],
  "asset": {
    "extras": {
      "author": "m1rdoff (https://sketchfab.com/m1rdoff)",
      "license": "CC-BY-4.0 (http://creativecommons.org/licenses/by/4.0/)",
      "source": "https://sketchfab.com/3d-models/nerd-2499a23f2f054e458b3a0cce4820954c",
      "title": "Nerd"
    },
    "generator": "Sketchfab-15.18.0",
    "version": "2.0"
  },
  "bufferViews": [
    {
      "buffer": 0,
      "byteLength": 403776,
      "name": "floatBufferViews",
      "target": 34963
    },
    {
      "buffer": 0,
      "byteLength": 145688,
      "byteOffset": 403776,
      "byteStride": 8,
      "name": "floatBufferViews",
      "target": 34962
    },
    {
      "buffer": 0,
      "byteLength": 437064,
      "byteOffset": 549464,
      "byteStride": 12,
      "name": "floatBufferViews",
      "target": 34962
    }
  ],
  "buffers": [
    {
      "byteLength": 986528,
      "uri": "scene.bin"
    }
  ],
  "materials": [
    {
      "doubleSided": true,
      "name": "material_0",
      "pbrMetallicRoughness": {
        "metallicFactor": 0.0,
        "roughnessFactor": 0.6
      }
    },
    {
      "doubleSided": true,
      "name": "Material.002",
      "pbrMetallicRoughness": {
        "baseColorFactor": [
          0.8,
          0.336287,
          0.0,
          1.0
        ],
        "metallicFactor": 0.0,
        "roughnessFactor": 0.5
      }
    },
    {
      "doubleSided": true,
      "name": "Material.003",
      "pbrMetallicRoughness": {
        "baseColorFactor": [
          0.0740412,
          0.014255,
          0.00290521,
          1.0
        ],
        "metallicFactor": 0.0,
        "roughnessFactor": 0.5
      }
    },
    {
      "doubleSided": true,
      "name": "Material.001",
      "pbrMetallicRoughness": {
        "baseColorFactor": [
          0.0,
          0.0,
          0.0,
          1.0
        ],
        "metallicFactor": 0.0,
        "roughnessFactor": 0.827273
      }
    }
  ],
  "meshes": [
    {
      "name": "Object_0",
      "primitives": [
        {
          "attributes": {
            "NORMAL": 1,
            "POSITION": 0,
            "TEXCOORD_0": 2
          },
          "indices": 3,
          "material": 1,
          "mode": 4
        }
      ]
    },
    {
      "name": "Object_1",
      "primitives": [
        {
          "attributes": {
            "NORMAL": 5,
            "POSITION": 4,
            "TEXCOORD_0": 6
          },
          "indices": 7,
          "material": 2,
          "mode": 4
        }
      ]
    },
    {
      "name": "Object_2",
      "primitives": [
        {
          "attributes": {
            "NORMAL": 9,
            "POSITION": 8,
            "TEXCOORD_0": 10
          },
          "indices": 11,
          "material": 3,
          "mode": 4
        }
      ]
    },
    {
      "name": "Object_3",
      "primitives": [
        {
          "attributes": {
            "NORMAL": 13,
            "POSITION": 12,
            "TEXCOORD_0": 14
          },
          "indices": 15,
          "material": 0,
          "mode": 4
        }
      ]
    },
    {
      "name": "Object_4",
      "primitives": [
        {
          "attributes": {
            "NORMAL": 17,
            "POSITION": 16,
            "TEXCOORD_0": 18
          },
          "indices": 19,
          "material": 0,
          "mode": 4
        }
      ]
    },
    {
      "name": "Object_5",
      "primitives": [
        {
          "attributes": {
            "NORMAL": 21,
            "POSITION": 20,
            "TEXCOORD_0": 22
          },
          "indices": 23,
          "material": 2,
          "mode": 4
        }
      ]
    },
    {
      "name": "Object_6",
      "primitives": [
        {
          "attributes": {
            "NORMAL": 25,
            "POSITION": 24,
            "TEXCOORD_0": 26
          },
          "indices": 27,
          "material": 2,
          "mode": 4
        }
      ]
    }
  ],
  "nodes": [
    {
      "children": [
        1
      ],
      "matrix": [
        1.0,
        0.0,
        0.0,
        0.0,
        0.0,
        2.220446049250313e-16,
        -1.0,
        0.0,
        0.0,
        1.0,
        2.220446049250313e-16,
        0.0,
        0.0,
        0.0,
        0.0,
        1.0
      ],
      "name": "Sketchfab_model"
    },
    {
      "children": [
        2
      ],
      "name": "root"
    },
    {
      "children": [
        3,
        6,
        8,
        10,
        12,
        14
      ],
      "matrix": [
        1.0,
        0.0,
        0.0,
        0.0,
        0.0,
        2.220446049250313e-16,
        1.0,
        0.0,
        0.0,
        -1.0,
        2.220446049250313e-16,
        0.0,
        0.0,
        0.0,
        0.0,
        1.0
      ],
      "name": "GLTF_SceneRootNode"
    },
    {
      "children": [
        4,
        5
      ],
      "name": "Sphere_0"
    },
    {
      "mesh": 0,
      "name": "Object_4"
    },
    {
      "mesh": 1,
      "name": "Object_5"
    },
    {
      "children": [
        7
      ],
      "matrix": [
        4.194745606204653e-09,
        -0.049763448536395194,
        8.10749441252264e-09,
        0.0,
        -0.18845239281654041,
        -1.588534599501781e-08,
        3.070279282312135e-08,
        0.0,
        -8.10749441252264e-09,
        -8.10749509593333e-09,
        -0.0497634485363947,
        0.0,
        0.0024439338594675064,
        0.27813658118247986,
        1.0264793634414673,
        1.0
      ],
      "name": "Cylinder.002_1"
    },
    {
      "mesh": 2,
      "name": "Object_7"
    },
    {
      "children": [
        9
      ],
      "matrix": [
        0.12173913194121685,
        0.0,
        0.003499965682835056,
        0.0,
        -0.0,
        0.12178943306207657,
        0.0,
        0.0,
        -0.0004623367175703538,
        -0.0,
        0.0160814350088069,
        0.0,
        -0.11815303564071655,
        -0.5522264242172241,
        0.8429306745529175,
        1.0
      ],
      "name": "Cube_2"
    },
    {
      "mesh": 3,
      "name": "Object_9"
    },
    {
      "children": [
        11
      ],
      "matrix": [
        -0.12173913193469835,
        0.0,
        0.00349996590956844,
        -0.0,
        0.0,
        0.12178943306207657,
        0.0,
        0.0,
        0.00046233674752126704,
        0.0,
        0.01608143500794582,
        0.0,
        0.14022698998451233,
        -0.5522264242172241,
        0.8429306745529175,
        1.0
      ],
      "name": "Cube.001_3"
    },
    {
      "mesh": 4,
      "name": "Object_11"
    },
    {
      "children": [
        13
      ],
      "matrix": [
        0.09717870335778929,
        -0.012311887060337643,
        -0.04222247006374408,
        0.0,
        0.0037538653189409933,
        0.00120690928862559,
        0.008287919510453164,
        0.0,
        -0.009088088423362794,
        -0.17149290156237756,
        0.029089548405102198,
        0.0,
        0.3452773988246918,
        0.1357044279575348,
        0.8909165859222412,
        1.0
      ],
      "name": "Cylinder_4"
    },
    {
      "mesh": 5,
      "name": "Object_13"
    },
    {
      "children": [
        15
      ],
      "matrix": [
        -0.09717869980997207,
        -0.012311887534614888,
        -0.04222247809105725,
        -0.0,
        -0.003753866007538383,
        0.0012069092343558983,
        0.008287919206468123,
        0.0,
        0.009088087140831869,
        -0.1714929016091417,
        0.029089548530096827,
        0.0,
        -0.34757670760154724,
        0.1357044279575348,
        0.8909165859222412,
        1.0
      ],
      "name": "Cylinder.001_5"
    },
    {
      "mesh": 6,
      "name": "Object_15"
    }
  ],
  "scene": 0,
  "scenes": [
    {
      "name": "Sketchfab_Scene",
      "nodes": [
        0
      ]
    }
  ]
}
